<?xml version="1.0" encoding="UTF-8" standalone="no"?>
<!DOCTYPE svg PUBLIC "-//W3C//DTD SVG 1.1//EN" "http://www.w3.org/Graphics/SVG/1.1/DTD/svg11.dtd">
<svg width="100%" height="100%" viewBox="0 0 10 6" version="1.1" xmlns="http://www.w3.org/2000/svg" xmlns:xlink="http://www.w3.org/1999/xlink" xml:space="preserve" xmlns:serif="http://www.serif.com/" style="fill-rule:evenodd;clip-rule:evenodd;stroke-linejoin:round;stroke-miterlimit:2;">
    <g transform="matrix(1,0,0,1,-3.09089,-371.796)">
        <path d="M5.495,371.796C2.565,373.006 2.33,377.454 4.698,377.535C5.442,377.535 5.978,377.042 5.978,376.171C5.978,375.471 5.459,374.902 4.53,374.974C4.53,374.13 4.856,373.489 6.03,372.863L5.495,371.796ZM11.302,371.796C10.558,371.796 10.022,372.289 10.022,373.16C10.022,373.86 10.541,374.429 11.47,374.357C11.47,375.201 11.144,375.842 9.97,376.468L10.505,377.535C13.435,376.325 13.67,371.877 11.302,371.796Z" style="fill:rgb(89,89,89);fill-rule:nonzero;"/>
    </g>
</svg>
