<?xml version="1.0" encoding="UTF-8" standalone="no"?>
<!DOCTYPE svg PUBLIC "-//W3C//DTD SVG 1.1//EN" "http://www.w3.org/Graphics/SVG/1.1/DTD/svg11.dtd">
<svg width="100%" height="100%" viewBox="0 0 17 7" version="1.1" xmlns="http://www.w3.org/2000/svg" xmlns:xlink="http://www.w3.org/1999/xlink" xml:space="preserve" xmlns:serif="http://www.serif.com/" style="fill-rule:evenodd;clip-rule:evenodd;stroke-linejoin:round;stroke-miterlimit:2;">
    <g transform="matrix(1,0,0,1,-1.998,-291.475)">
        <path d="M5.443,291.476C5.27,291.484 5.106,291.556 4.984,291.679L1.998,294.664L4.984,297.652C5.636,298.275 6.585,297.327 5.963,296.675L3.953,294.665L5.963,292.655C6.093,292.525 6.165,292.35 6.165,292.166C6.165,291.787 5.854,291.475 5.474,291.475C5.464,291.475 5.453,291.476 5.443,291.476ZM8.775,291.476C8.602,291.484 8.438,291.556 8.316,291.679L5.33,294.664L8.316,297.652C8.968,298.275 9.917,297.327 9.295,296.675L7.285,294.665L9.295,292.655C9.425,292.525 9.497,292.35 9.497,292.166C9.497,291.787 9.186,291.475 8.806,291.475C8.796,291.475 8.785,291.476 8.775,291.476ZM11.223,291.476C10.593,291.448 10.258,292.209 10.703,292.656L12.713,294.666L10.703,296.676C10.081,297.326 11.03,298.275 11.682,297.652L14.668,294.664L11.682,291.679C11.56,291.556 11.395,291.483 11.222,291.476L11.223,291.476ZM14.555,291.476C13.925,291.448 13.59,292.209 14.035,292.656L16.045,294.666L14.035,296.676C13.413,297.326 14.362,298.275 15.014,297.652L18,294.664L15.014,291.679C14.892,291.556 14.727,291.483 14.554,291.476L14.555,291.476Z" style="fill-rule:nonzero;"/>
    </g>
</svg>
